<?xml version="1.0" encoding="UTF-8" standalone="no"?>
<!-- Uploaded to: SVG Repo, www.svgrepo.com, Generator: SVG Repo Mixer Tools -->

<svg
   width="496"
   height="496"
   viewBox="0 -0.5 15.5 15.5"
   fill="none"
   version="1.1"
   id="svg3"
   xmlns="http://www.w3.org/2000/svg"
   xmlns:svg="http://www.w3.org/2000/svg">
  <defs
     id="defs3" />
  <path
     fill-rule="evenodd"
     clip-rule="evenodd"
     d="m 10.75,0.25 h -6 c -2.20914,0 -4,1.79086 -4,4 v 6 c 0,2.2091 1.79086,4 4,4 h 6 c 2.2091,0 4,-1.7909 4,-4 v -6 c 0,-2.20914 -1.7909,-4 -4,-4 z"
     stroke="#000000"
     stroke-width="1.5"
     stroke-linecap="round"
     stroke-linejoin="round"
     id="path1" />
  <path
     fill-rule="evenodd"
     clip-rule="evenodd"
     d="m 7.75,10.25 c -1.6569,0 -3,-1.3431 -3,-3 0,-1.6569 1.3431,-3 3,-3 1.6569,0 3,1.3431 3,3 0,0.7956 -0.3161,1.5587 -0.8787,2.1213 C 9.3087,9.9339 8.5456,10.25 7.75,10.25 Z"
     stroke="#000000"
     stroke-width="1.5"
     stroke-linecap="round"
     stroke-linejoin="round"
     id="path2" />
  <rect
     x="-4.25"
     y="10.75"
     width="2"
     height="2"
     rx="1"
     transform="rotate(-90)"
     fill="#000000"
     id="rect2" />
  <rect
     x="-3.75"
     y="11.25"
     width="1"
     height="1"
     rx="0.5"
     transform="rotate(-90)"
     stroke="#000000"
     stroke-linecap="round"
     id="rect3" />
</svg>
