<?xml version="1.0" encoding="UTF-8" standalone="no"?>
<!-- Generator: Adobe Illustrator 25.0.1, SVG Export Plug-In . SVG Version: 6.00 Build 0)  -->

<svg
   version="1.0"
   id="Capa_1"
   x="0px"
   y="0px"
   viewBox="0 0 512 512"
   xml:space="preserve"
   sodipodi:docname="tiktok.svg"
   width="512"
   height="512"
   inkscape:export-filename="tiktok.svg"
   inkscape:export-xdpi="96"
   inkscape:export-ydpi="96"
   inkscape:version="1.4.2 (ebf0e940d0, 2025-05-08)"
   xmlns:inkscape="http://www.inkscape.org/namespaces/inkscape"
   xmlns:sodipodi="http://sodipodi.sourceforge.net/DTD/sodipodi-0.dtd"
   xmlns="http://www.w3.org/2000/svg"
   xmlns:svg="http://www.w3.org/2000/svg"><defs
   id="defs1" /><sodipodi:namedview
   id="namedview1"
   pagecolor="#505050"
   bordercolor="#ffffff"
   borderopacity="1"
   inkscape:showpageshadow="0"
   inkscape:pageopacity="0"
   inkscape:pagecheckerboard="1"
   inkscape:deskcolor="#d1d1d1"
   inkscape:zoom="1.9259259"
   inkscape:cx="-7.2692308"
   inkscape:cy="272.59615"
   inkscape:window-width="3440"
   inkscape:window-height="1355"
   inkscape:window-x="0"
   inkscape:window-y="0"
   inkscape:window-maximized="1"
   inkscape:current-layer="Capa_1" />
<path
   d="M 256,0 C 114.6,0 0,114.6 0,256 0,397.4 114.6,512 256,512 397.4,512 512,397.4 512,256 512,114.6 397.4,0 256,0 Z m 128.4,195.9 v 34.7 c -16.3,0 -32.2,-3.2 -47.2,-9.5 -9.6,-4.1 -18.6,-9.3 -26.8,-15.6 l 0.2,106.7 c -0.1,24 -9.6,46.6 -26.8,63.6 -14,13.8 -31.7,22.6 -51,25.5 -4.5,0.7 -9.1,1 -13.8,1 -20.6,0 -40.1,-6.7 -56.1,-19 -3,-2.3 -5.9,-4.8 -8.6,-7.5 -18.6,-18.4 -28.3,-43.4 -26.6,-69.7 1.2,-20 9.2,-39.1 22.6,-54 17.7,-19.8 42.4,-30.8 68.8,-30.8 4.6,0 9.2,0.3 13.8,1 v 12.8 35.7 c -4.3,-1.4 -8.9,-2.2 -13.6,-2.2 -24.1,0 -43.7,19.7 -43.3,43.8 0.2,15.5 8.7,29 21.1,36.4 5.9,3.5 12.6,5.7 19.8,6.1 5.6,0.3 11,-0.5 16,-2.1 17.2,-5.7 29.7,-21.9 29.7,-41 l 0.1,-71.4 V 109.8 h 47.7 c 0,4.7 0.5,9.3 1.4,13.8 3.6,18.1 13.8,33.8 28,44.5 12.4,9.3 27.8,14.9 44.5,14.9 0,0 0.1,0 0.1,0 z"
   id="path1" />
</svg>
